<?xml version="1.0" standalone="no"?><!DOCTYPE svg PUBLIC "-//W3C//DTD SVG 1.1//EN" "http://www.w3.org/Graphics/SVG/1.1/DTD/svg11.dtd"><svg t="1748846869028" class="icon" viewBox="0 0 2856 1024" version="1.1" xmlns="http://www.w3.org/2000/svg" p-id="24418" xmlns:xlink="http://www.w3.org/1999/xlink" width="557.8125" height="200"><path d="M2705.484481 1023.915021h-150.923153l-64.669212-150.923154h183.21527V614.4H2328.431535v398.892614h-183.555186V603.352697h-183.130291V431.099751h183.130291V258.676846h-129.253444v-172.507883h129.253444V0h183.555186v86.168963h129.338424a176.501909 176.501909 0 0 1 130.953029 59.485477 157.806473 157.806473 0 0 1 41.554854 123.389875V441.892116h43.169461a176.416929 176.416929 0 0 1 133.587386 54.386722 164.519834 164.519834 0 0 1 38.835518 128.828548V883.784232a142.000332 142.000332 0 0 1-140.385726 140.130789zM2328.431535 258.676846V441.892116h129.338424V258.676846z m-377.222904 754.530789H1325.676349l86.168962-183.21527h172.422905V258.676846h-129.168465V75.461577H1886.539419v194.007635h-97.216265v571.315518h161.46058v172.422905z m-733.031038 0h-302.016265l97.046307-172.507884h280.431535l-75.461577 172.422905z m-743.738423 0H301.761328l-64.669212-150.838174h129.423403V21.58473H560.863071v872.991868c-1.359668 4.843817-23.369295 118.631037-86.593859 118.631037z m344.76083-86.253942C671.3361 810.362158 689.606639 274.822905 689.861577 269.469212H883.784232a1606.107884 1606.107884 0 0 0 21.584731 388.100249 304.735602 304.735602 0 0 1 9.942572 42.489626v1.869544a165.624564 165.624564 0 0 0 11.302241 42.489626 1131.158838 1131.158838 0 0 0-107.668714 183.130291z m-711.446307-10.792365C33.226888 798.804979 0 733.540913 0 732.946058l6.543402-18.865394a187.804149 187.804149 0 0 0 15.041328-67.388548 1236.448133 1236.448133 0 0 0 21.584731-388.01527H237.092116v0.849793c0.679834 55.406473 2.889295 544.547054-129.338423 656.54971zM1325.676349 754.445809h-237.007137a44.954025 44.954025 0 0 1-36.796017-18.780415 50.987552 50.987552 0 0 1-6.373444-45.803817L1153.338423 441.892116H1056.292116a44.869046 44.869046 0 0 1-36.541079-18.780415 50.987552 50.987552 0 0 1-6.373444-45.803817L1153.338423 21.58473h183.21527l-97.046307 269.384233h161.460581l-161.460581 323.346058h140.130788L1325.676349 754.445809z m1444.647302-495.853942h-86.4239V172.422905a86.253942 86.253942 0 1 1 172.422905 0A92.11751 92.11751 0 0 1 2770.323651 258.676846z" p-id="24419" fill="#8a8a8a"></path></svg>